<svg xmlns="http://www.w3.org/2000/svg" aria-hidden="true" style="position:absolute;width:0;height:0;overflow:hidden"><defs><symbol id="icon-twitter" viewBox="0 0 32 32"><path fill="#f4f4fd" d="M32 6.078c-1.1.494-2.376.858-3.712 1.029l-.068.007a6.56 6.56 0 0 0 2.873-3.58l.013-.046a12.858 12.858 0 0 1-4.076 1.574l-.084.014A6.56 6.56 0 0 0 15.598 9.56c0 .52.044 1.02.152 1.496A18.554 18.554 0 0 1 2.255 4.228l-.027-.034a6.496 6.496 0 0 0-.895 3.311 6.562 6.562 0 0 0 2.888 5.442l.023.015a6.465 6.465 0 0 1-2.997-.823l.033.017v.072a6.592 6.592 0 0 0 5.213 6.438l.043.008a6.408 6.408 0 0 1-1.669.216h-.054.003a5.842 5.842 0 0 1-1.279-.118l.037.006c.873 2.624 3.273 4.496 6.121 4.57h.009a13.098 13.098 0 0 1-8.12 2.798h-.015.001c-.538 0-1.054-.024-1.57-.09C2.826 27.902 6.287 29 10.004 29h.063-.003c12.072 0 18.672-10 18.672-18.668 0-.29-.01-.57-.024-.848a13.186 13.186 0 0 0 3.258-3.359l.03-.047z" style="fill:var(--color1, #f4f4fd)"/></symbol><symbol id="icon-instagram" viewBox="0 0 32 32"><path fill="#f4f4fd" d="M31.968 9.408c-.074-1.7-.35-2.87-.744-3.882a7.844 7.844 0 0 0-1.849-2.839l-.001-.001A7.898 7.898 0 0 0 26.596.862l-.054-.018c-1.02-.394-2.18-.67-3.88-.744C20.946.02 20.4 0 16.06 0c-4.346 0-4.89.02-6.596.094-1.7.074-2.868.35-3.88.744a7.844 7.844 0 0 0-2.839 1.849l-.001.001A7.89 7.89 0 0 0 .918 5.466L.9 5.52C.506 6.54.232 7.7.156 9.4c-.08 1.714-.1 2.26-.1 6.602 0 4.346.02 4.89.094 6.596.074 1.7.35 2.87.744 3.882a7.886 7.886 0 0 0 1.85 2.838c.8.812 1.77 1.444 2.832 1.844 1.02.394 2.18.67 3.882.744 1.706.076 2.25.094 6.596.094 4.344 0 4.888-.02 6.594-.094 1.7-.074 2.87-.35 3.882-.744a8.233 8.233 0 0 0 4.663-4.627l.019-.055c.394-1.02.67-2.18.744-3.882.076-1.706.094-2.25.094-6.596 0-4.344-.006-4.888-.08-6.594zm-2.88 13.064c-.07 1.564-.332 2.408-.552 2.97a5.34 5.34 0 0 1-3.002 3.027l-.036.013c-.562.218-1.412.48-2.968.548-1.688.076-2.194.094-6.464.094s-4.782-.02-6.464-.094c-1.564-.068-2.408-.33-2.97-.55a4.947 4.947 0 0 1-1.837-1.193l-.001-.001a5.001 5.001 0 0 1-1.183-1.804l-.011-.034c-.22-.562-.48-1.412-.55-2.968-.074-1.688-.094-2.196-.094-6.464 0-4.27.02-4.782.094-6.464.07-1.564.332-2.408.55-2.97a4.888 4.888 0 0 1 1.2-1.838A4.96 4.96 0 0 1 6.64 3.55c.56-.22 1.412-.48 2.968-.55 1.688-.074 2.194-.094 6.464-.094 4.276 0 4.78.02 6.464.094 1.562.07 2.406.332 2.968.55a4.929 4.929 0 0 1 1.84 1.194 4.98 4.98 0 0 1 1.192 1.84c.22.56.482 1.41.55 2.968.076 1.688.094 2.194.094 6.464s-.018 4.77-.092 6.456z" style="fill:var(--color1, #f4f4fd)"/><path fill="#f4f4fd" d="M16.06 7.782a8.222 8.222 0 0 0-.01 16.44h.009a8.222 8.222 0 0 0 .01-16.44h-.009zm0 13.554a5.334 5.334 0 1 1 0-10.668 5.334 5.334 0 1 1 0 10.668zM26.524 7.458a1.92 1.92 0 0 1-3.84 0 1.92 1.92 0 0 1 3.84 0z" style="fill:var(--color1, #f4f4fd)"/></symbol><symbol id="icon-linkedin" viewBox="0 0 32 32"><path fill="#f4f4fd" d="M31.992 32H32V20.26c0-5.74-1.236-10.164-7.948-10.164-3.226 0-5.392 1.772-6.276 3.45h-.094v-2.912H11.32V32h6.628V21.42c0-2.784.528-5.476 3.976-5.476 3.4 0 3.45 3.178 3.45 5.656V32h6.62zM.528 10.636h6.634V32H.528V10.636zM3.842 0C1.722 0 0 1.72 0 3.84s1.72 3.88 3.842 3.88 3.844-1.76 3.844-3.88A3.849 3.849 0 0 0 3.84 0z" style="fill:var(--color1, #f4f4fd)"/></symbol><symbol id="icon-facebook" viewBox="0 0 32 32"><path fill="#f4f4fd" d="M21.33 5.314h2.92V.226A36.551 36.551 0 0 0 20.125 0h-.138.007C15.782 0 12.9 2.65 12.9 7.52V12H8.25v5.688h4.648V32h5.698V17.69h4.46l.708-5.69h-5.17V8.08c.002-1.644.444-2.768 2.736-2.768z" style="fill:var(--color1, #f4f4fd)"/></symbol><symbol id="icon-group5" viewBox="0 0 44 32"><path  d="M3.334 26.694c.17.191.262.429.257.673.008.159-.023.319-.092.466s-.174.278-.307.384a1.847 1.847 0 0 1-1.163.31h.006H0v-4.266h1.993a1.836 1.836 0 0 1 1.111.287l-.007-.004c.129.097.231.22.298.358s.097.289.089.44a.919.919 0 0 1-.232.652 1.107 1.107 0 0 1-.599.333l-.007.001c.27.045.513.174.687.365zM.947 26.05h.852a.873.873 0 0 0 .541-.141.516.516 0 0 0 .145-.186l.001-.003a.447.447 0 0 0 .039-.185l-.002-.045v.002l.001-.036a.477.477 0 0 0-.041-.193l.001.003a.54.54 0 0 0-.141-.19l-.001-.001a.888.888 0 0 0-.562-.143h.003-.839v1.119zm1.477 1.637a.547.547 0 0 0 .156-.192l.001-.003a.475.475 0 0 0 .046-.205l-.001-.035v.002l.001-.03a.494.494 0 0 0-.049-.214l.001.003a.546.546 0 0 0-.159-.196l-.001-.001a.941.941 0 0 0-.522-.156l-.059.002h.003-.895v1.174h.905a.978.978 0 0 0 .572-.148zm4.984.842-1.109-1.667h-.417v1.667h-.953v-4.266h1.805a1.904 1.904 0 0 1 1.262.367l-.005-.004c.253.232.405.537.429.861s-.08.644-.295.904c-.223.23-.527.383-.861.434l1.181 1.704H7.408zM5.882 26.28h.78c.542 0 .813-.216.813-.646l.001-.035a.572.572 0 0 0-.046-.227l.001.004a.626.626 0 0 0-.155-.221.9.9 0 0 0-.617-.173h.003-.79l.01 1.298zm6.739 1.39H10.72l-.336.858h-1l1.746-4.218h1.081l1.738 4.218h-1l-.328-.858zm-.254-.646-.695-1.801-.694 1.8h1.389zm6.779 1.505H18.2l-2.123-2.901v2.901h-.945v-4.266h.945l2.122 2.918v-2.918h.947v4.266zm5.404-1.022a1.98 1.98 0 0 1-.844.748l-.012.005a3.04 3.04 0 0 1-1.331.269h-1.686v-4.266h1.686l.078-.001c.453 0 .884.097 1.272.271l-.02-.008c.362.165.661.424.856.744.195.347.296.73.296 1.119a2.276 2.276 0 0 1-.302 1.13l.006-.011zm-1.084-.102c.256-.263.416-.622.419-1.018v-.001a1.468 1.468 0 0 0-.419-1.018 1.747 1.747 0 0 0-1.19-.362h.005-.657v2.762h.657a1.76 1.76 0 0 0 1.19-.366l-.004.003zM13.213.534s12.221 4.153 11.962 10.163v10.166s-12.211-4.156-11.958-10.166L13.213.534zm22.849 17.949c2.308-1.43 4.977-2.317 7.764-2.576v-3.183c-3.211 1.114-5.935 3.134-7.764 5.758z"/><path  d="M34.675 19.442c1.888-3.425 5.164-6.067 9.151-7.384v-9.17S26.422 8.805 26.79 17.364v14.474s.776-.264 1.996-.761c0-.463 0-.929.056-1.398.36-3.974 2.458-7.656 5.834-10.237z"/><path d="M33.02 24.819c.103-1.095.318-2.101.637-3.06l-.028.096c-2.102 2.229-3.375 4.995-3.64 7.909-.025.275-.039.55-.046.833a49.032 49.032 0 0 0 3.636-1.726l-.288.139a13.192 13.192 0 0 1-.328-2.958c0-.434.02-.864.06-1.287l-.004.054zm.692.052a12.983 12.983 0 0 0 .231 3.88l-.015-.085c4.755-2.561 10.097-6.518 9.891-11.302v-.417c-3.397.343-6.575 1.68-9.047 3.806a12.764 12.764 0 0 0-1.056 4.067l-.004.051z"/></symbol><symbol id="icon-group3" viewBox="0 0 34 32"><path  d="M5.315 31.394c.013 0 .025.003.036.008.012.004.022.01.031.018l.172.162a1.416 1.416 0 0 1-.474.304l-.01.003a1.91 1.91 0 0 1-.688.11h-.036c-.219 0-.429-.038-.624-.107l.013.004a1.426 1.426 0 0 1-.487-.291l.001.001a1.295 1.295 0 0 1-.311-.441l-.003-.008a1.444 1.444 0 0 1-.11-.559v-.018.001-.019c0-.203.044-.395.122-.568l-.003.009c.075-.167.189-.32.334-.449.146-.125.318-.225.506-.29l.011-.003c.192-.065.414-.103.644-.103h.023-.001a1.84 1.84 0 0 1 .618.094c.171.064.328.151.464.26l-.144.173a.134.134 0 0 1-.036.031h-.001a.094.094 0 0 1-.05.014h-.009a.133.133 0 0 1-.063-.019h.001l-.078-.046-.107-.059a1.2 1.2 0 0 0-.333-.103l-.007-.001a1.438 1.438 0 0 0-.235-.018h-.023.001-.017c-.165 0-.324.028-.471.08l.01-.003c-.145.05-.269.124-.376.218l.001-.001c-.108.101-.19.219-.244.347-.056.13-.088.282-.088.441v.016-.001.017c0 .161.032.314.091.454l-.003-.008a.992.992 0 0 0 .59.556l.007.002c.14.05.291.075.443.073.088.002.176-.004.263-.015.219-.022.414-.108.571-.239l-.002.001a.137.137 0 0 1 .082-.03zm4.976-.815c.003.195-.037.39-.116.573a1.26 1.26 0 0 1-.323.444l-.001.001a1.506 1.506 0 0 1-.509.291 2.151 2.151 0 0 1-1.325-.004l.015.004a1.524 1.524 0 0 1-.509-.294l.002.002a1.311 1.311 0 0 1-.324-.441l-.003-.008a1.468 1.468 0 0 1 .003-1.157l-.004.01c.073-.167.185-.32.328-.451.144-.123.317-.219.507-.281.421-.14.888-.14 1.31 0a1.5 1.5 0 0 1 .508.293c.272.243.442.594.442.985v.036-.002zm-.452 0a1.176 1.176 0 0 0-.081-.46.952.952 0 0 0-.588-.559l-.007-.002a1.539 1.539 0 0 0-.963.003l.011-.003a1.038 1.038 0 0 0-.365.218l.001-.001a.925.925 0 0 0-.23.337l-.002.006c-.109.3-.109.621 0 .921a.935.935 0 0 0 .233.344c.101.094.226.168.365.215.307.098.645.098.952 0 .138-.048.263-.122.364-.215a.962.962 0 0 0 .231-.344c.058-.148.086-.304.081-.46zm3.848.484.044.103a2.5 2.5 0 0 1 .106-.204l1.101-1.709c.022-.03.041-.048.062-.055a.283.283 0 0 1 .074-.009h.018-.001.325v2.781h-.386v-2.131a.683.683 0 0 1 0-.098v.002l-1.107 1.733a.155.155 0 0 1-.064.063h-.001a.191.191 0 0 1-.093.023H13.7a.199.199 0 0 1-.094-.024h.001a.16.16 0 0 1-.064-.062v-.001l-1.139-1.745v2.232h-.373v-2.775h.339c.027 0 .053.004.078.01h-.002a.123.123 0 0 1 .06.052v.001l1.124 1.712a.585.585 0 0 1 .057.1zm4.143-.139v1.041h-.431v-2.777h.96c.182-.003.363.017.537.061.14.034.268.092.379.172a.729.729 0 0 1 .214.269l.002.004a.81.81 0 0 1 .073.355v.012a.773.773 0 0 1-.31.619l-.002.001a1.09 1.09 0 0 1-.375.182l-.008.002a1.877 1.877 0 0 1-.518.064l-.521-.008zm0-.298h.521c.113.001.226-.013.333-.043a.716.716 0 0 0 .244-.121l-.002.001a.525.525 0 0 0 .198-.411v-.007l.001-.028a.453.453 0 0 0-.046-.201l.001.003a.527.527 0 0 0-.15-.189l-.001-.001a.929.929 0 0 0-.582-.149h.003-.521v1.145zm5.791 1.344H23.274a.169.169 0 0 1-.089-.026h.001a.17.17 0 0 1-.056-.063v-.001l-.293-.672h-1.472l-.304.671a.153.153 0 0 1-.053.062h-.001a.161.161 0 0 1-.092.028H20.57l1.293-2.781h.448l1.31 2.781zm-2.133-1.033h1.215l-.513-1.132a1.598 1.598 0 0 1-.094-.249l-.003-.013-.049.145a1.664 1.664 0 0 1-.047.117l-.509 1.132zm3.995-1.736a.185.185 0 0 1 .064.05l1.886 2.096v-2.159h.386v2.781h-.224a.222.222 0 0 1-.082-.016l.001.001a.256.256 0 0 1-.069-.052l-1.883-2.095a.683.683 0 0 1 0 .098v-.002 2.067h-.386v-2.781h.228a.206.206 0 0 1 .078.012zm5.51 1.663v1.104h-.431v-1.104l-1.191-1.675h.396c.031 0 .059.009.084.024h-.001a.261.261 0 0 1 .058.062l.745 1.081c.051.071.095.152.129.239l.003.007.056-.119a1.07 1.07 0 0 1 .073-.127l.735-1.088a.281.281 0 0 1 .055-.059h.001a.146.146 0 0 1 .085-.027h.398l-1.194 1.683zm-17.519-6.343c.187.02.377.037.569.052 2.907-1.111 5.366-2.929 7.07-5.229s2.577-4.975 2.51-7.696L20.42 8.911c.651 2.896.347 5.89-.88 8.648-1.227 2.756-3.327 5.167-6.066 6.962z" /><path d="m12.329 24.393.086.015c2.927-1.789 5.159-4.286 6.406-7.17s1.454-6.021.592-9.006l-4.564-3.899c1.846 3.205 2.589 6.791 2.142 10.341s-2.064 6.922-4.663 9.719zm15.476-9.531c-.775 2.989-2.658 5.685-5.369 7.688a16.877 16.877 0 0 1-2.453 1.519l-.098.045c2.207-.554 4.236-1.534 5.93-2.864s3.008-2.975 3.84-4.808l-1.85-1.58z"/><path  d="m27.079 14.422-2.635-2.251c-.051 2.567-.905 5.075-2.473 7.264s-3.796 3.98-6.448 5.185h.013c.591 0 1.182-.03 1.769-.09 2.48-.865 4.67-2.24 6.375-4.004s2.874-3.861 3.4-6.103zM12.711 2.69 9.569 0c-2.81.928-5.227 2.558-6.934 4.68C.927 6.801.008 9.311 0 11.886c.01 2.843 1.131 5.604 3.184 7.842s4.92 3.828 8.15 4.518c2.883-3.001 4.571-6.71 4.819-10.587s-.958-7.719-3.442-10.971zm21.63 11.318c-.012-3.375-1.585-6.608-4.379-8.994-2.792-2.386-6.576-3.731-10.526-3.741h-.034c-1.896 0-3.719.31-5.422.883l.12-.035 19.245 16.443c.627-1.338.993-2.905.995-4.557v-.001z" /></symbol><symbol id="icon-group2" viewBox="0 0 25 32"><path d="M10.532 1.806h-.084a9.985 9.985 0 0 0-.388-.014h-.28c-.244 0-.494.006-.741.018l-.028-.001-.029.001h.001a17.353 17.353 0 0 0-6.576 1.696l.104-.045-.266.128v13.626l.623-.212a23.32 23.32 0 0 1 1.731-.513c1.488-.398 3.202-.638 4.967-.661h.014v1.79c-.223.001-.439.007-.655.018h-.052a20.051 20.051 0 0 0-3.971.619l.139-.031a19.399 19.399 0 0 0-4.666 1.83l.1-.051V2.529A17.896 17.896 0 0 1 5.14.608L5.267.58a17.862 17.862 0 0 1 4.51-.582h.267c.314.008.622.022.91.044.829.06 1.597.187 2.339.378l-.09-.02v1.762a13.17 13.17 0 0 0-2.134-.326l-.045-.003-.044-.004c-.152-.013-.304-.026-.446-.026zm3.101 1.801c.391.03.796.044 1.205.044a19.413 19.413 0 0 0 4.881-.639l-.135.03a19.492 19.492 0 0 0 4.665-1.831l-.101.051v17.163a17.972 17.972 0 0 1-4.664 1.921l-.127.028a17.962 17.962 0 0 1-4.511.581h-.115c-1.177 0-2.319-.147-3.409-.425l.095.021V3.276c.265.062.537.118.814.164.455.077.934.133 1.401.167zm8.734.133-.623.209c-.572.193-1.151.365-1.731.518-1.551.415-3.332.657-5.169.663h-.004c-.406 0-.78-.011-1.141-.034l-.497-.033V19.08l.426.037c.395.035.803.052 1.214.052a16.554 16.554 0 0 0 4.189-.553l-.116.026a16.96 16.96 0 0 0 3.285-1.189l-.102.044.266-.128V3.739zM1.684 25.977a.916.916 0 0 0-.661-.281l-.034.001h.002-.014c-.139 0-.272.028-.393.078l.007-.003a.904.904 0 0 0-.51.512l-.002.006a1.001 1.001 0 0 0-.071.386v2.335c-.006.164.026.328.092.479.055.12.135.226.234.313a.824.824 0 0 0 .32.166c.114.031.231.048.349.048a.985.985 0 0 0 .968-.982v-.261H1.36v.222c0 .07-.013.136-.037.198l.001-.004a.38.38 0 0 1-.089.132.426.426 0 0 1-.255.089.308.308 0 0 1-.286-.125l-.001-.001a.548.548 0 0 1-.082-.289l.001-.024v.001-2.177a.74.74 0 0 1 .075-.349.31.31 0 0 1 .262-.143l.038.002H.986h.012c.107 0 .201.052.26.131l.001.001a.493.493 0 0 1 .101.3v.014-.001.202h.604v-.249c0-.143-.027-.28-.077-.405l.003.007a.955.955 0 0 0-.205-.329zm3.626-.026a1.051 1.051 0 0 0-1.058-.191.965.965 0 0 0-.557.511l-.002.006a1.08 1.08 0 0 0-.089.452v2.239c-.004.158.026.314.089.458a.888.888 0 0 0 .236.313.964.964 0 0 0 .322.197 1.049 1.049 0 0 0 1.059-.198l-.001.001a.948.948 0 0 0 .23-.313c.063-.144.093-.301.089-.458v-2.259c0-.156-.033-.305-.092-.439l.003.007a1.016 1.016 0 0 0-.23-.327zm-.285 3.018.002.035a.398.398 0 0 1-.123.289.446.446 0 0 1-.575 0l.001.001a.398.398 0 0 1-.121-.326v.002-2.239l-.001-.034a.4.4 0 0 1 .123-.289.446.446 0 0 1 .575 0l-.001-.001a.398.398 0 0 1 .121.326v-.002 2.24zm5.047 1v-4.24h-.586l-.771 2.244h-.01l-.777-2.244h-.58v4.239h.606V27.39h.011l.593 1.823h.302l.598-1.823h.01v2.578h.606zm3.441-3.942a.834.834 0 0 0-.342-.232 1.31 1.31 0 0 0-.416-.066h-.024.001-.9v4.24h.604v-1.656h.311c.189.009.376-.031.545-.116a.88.88 0 0 0 .329-.32l.002-.004a1 1 0 0 0 .138-.369c.021-.133.033-.287.033-.444v-.04.002a2.426 2.426 0 0 0-.059-.606.906.906 0 0 0-.223-.39zm-.312 1.292a.538.538 0 0 1-.057.224l.001-.003a.342.342 0 0 1-.154.147l-.002.001a.617.617 0 0 1-.254.054l-.033-.001h.002-.276V26.3h.311l.029-.001c.088 0 .172.02.247.055l-.004-.002a.35.35 0 0 1 .141.154l.001.002a.62.62 0 0 1 .053.236v.282c0 .098.006.201 0 .291H13.2zm3.173-1.59h-.495l-.934 4.24h.604l.177-.911h.823l.178.911h.604l-.958-4.24zm-.557 2.752.297-1.537h.011l.295 1.537h-.604zm4.46-.198h-.011l-.912-2.554h-.581v4.24h.604v-2.55h.012l.923 2.549h.568v-4.239h-.604v2.554zm3.691-2.554-.486 1.686h-.012l-.486-1.686h-.639l.83 2.448v1.791h.604v-1.791l.83-2.447h-.64zM0 31.166h.291v.817h.198v-.817h.289v-.167H0v.168zm2.447-.168-.382.985h.21l.081-.224h.392l.084.224h.215l-.391-.985h-.21zm-.03.595.134-.365.134.365h-.268zm2.449.027h.228v.127a.378.378 0 0 1-.234.083h-.014a.25.25 0 0 1-.195-.094.406.406 0 0 1-.073-.234l.001-.023v.001c0-.219.095-.329.283-.329l.021-.001c.097 0 .178.067.201.157v.001l.194-.038c-.042-.192-.18-.289-.417-.289h-.013a.492.492 0 0 0-.331.127.48.48 0 0 0-.141.38v-.002.023c0 .132.048.254.127.347l-.001-.001c.087.09.209.146.343.146L4.877 32h-.001.016c.155 0 .296-.06.402-.157v-.388h-.426v.166zm2.471-.622h-.199v.985h.689v-.167h-.49v-.817zm2.089 0h-.199v.985h.199v-.985zm2.043.657-.404-.657h-.193v.985h.185v-.643l.396.643h.198v-.985h-.182v.658zm1.846-.106h.49v-.167h-.49v-.215h.527v-.168h-.727v.985h.747v-.167h-.548v-.266zm4.477-.163h-.388v-.388h-.197v.984h.197v-.431h.388v.431h.198v-.985h-.198v.388zm1.857.163h.492v-.167h-.492v-.215h.529v-.168h-.726v.985h.746v-.167h-.548v-.266zm2.519.001c.171-.027.258-.118.258-.274a.23.23 0 0 0-.096-.219h-.001a.555.555 0 0 0-.25-.059l-.04.001h.002-.417v.984h.198v-.412h.055c.039 0 .076.008.109.023l-.002-.001a.201.201 0 0 1 .07.072l.215.313h.236l-.12-.192a.704.704 0 0 0-.215-.235l-.002-.002zm-.199-.137h-.146v-.247h.156a.515.515 0 0 1 .205.024l-.004-.001a.13.13 0 0 1-.009.2.537.537 0 0 1-.164.025l-.039-.001h.002zm2.099.136h.49v-.167h-.49v-.215h.529v-.168h-.729v.985h.747v-.167h-.548v-.266z" /></symbol><symbol id="icon-group1" viewBox="0 0 28 32"><path  d="m4.085 0 4.771 4.545-8.857-.004v22.053h23.149v-8.432l4.766 4.541V0H4.084zm18.854 17.629L9.411 4.74h13.528v12.889zm-4.2 5.739H3.663V8.536h1.066v13.828H18.74v1.005zM6.67 30.681l-.562-1.156h-.464l.814 1.529v.891h.42v-.892l.815-1.529h-.462l-.562 1.155zm2.071-1.156h.099l.914 2.42h-.438l-.196-.566h-.937l-.195.566h-.437l.911-2.42h.279zm-.444 1.523h.709l-.354-1.027-.354 1.027zm2.925-.402-.041-.052-.011-.015a1.267 1.267 0 0 1-.142-.23l-.003-.008a.58.58 0 0 1-.051-.239v-.001c0-.126.026-.234.078-.325s.128-.162.218-.208l.003-.001a.71.71 0 0 1 .334-.075.64.64 0 0 1 .318.075.524.524 0 0 1 .237.673l.001-.003a.603.603 0 0 1-.116.173 1.198 1.198 0 0 1-.165.146l-.003.002-.168.123.479.565a.94.94 0 0 0 .104-.435v-.018.001h.346c0 .118-.012.229-.035.334a1.04 1.04 0 0 1-.179.403l.002-.003.354.419h-.463l-.141-.165a.933.933 0 0 1-.242.134l-.007.002c-.109.04-.235.063-.367.063h-.009a.916.916 0 0 1-.417-.088.664.664 0 0 1-.271-.24l-.002-.003a.656.656 0 0 1-.095-.343v-.012.001c0-.099.02-.185.061-.259a.805.805 0 0 1 .168-.21c.066-.059.14-.118.225-.178zm.199.244-.05.036a.62.62 0 0 0-.13.136l-.001.002a.407.407 0 0 0-.022.411l-.001-.002a.358.358 0 0 0 .133.137l.002.001c.06.032.13.051.205.051h.013-.001a.62.62 0 0 0 .392-.139l-.002.001-.538-.633zm.095-.442.148-.099a.536.536 0 0 0 .149-.135l.001-.001a.302.302 0 0 0 .045-.159v-.012.001a.24.24 0 0 0-.241-.233h-.014.001-.007a.245.245 0 0 0-.223.142l-.001.002a.34.34 0 0 0 .011.298l-.001-.002c.025.052.06.107.105.165l.027.035zm4.235.71h-.416a.76.76 0 0 1-.078.272l.002-.004a.386.386 0 0 1-.166.164l-.002.001a.621.621 0 0 1-.262.057l-.027-.001h.001-.014a.508.508 0 0 1-.24-.06l.003.001a.48.48 0 0 1-.172-.163l-.001-.002a.78.78 0 0 1-.098-.249l-.001-.005a1.599 1.599 0 0 1-.032-.32v-.013.001-.204c0-.129.012-.243.035-.343s.06-.185.108-.254a.47.47 0 0 1 .176-.155l.003-.001a.535.535 0 0 1 .236-.053h.014-.001c.116 0 .21.02.283.06s.126.095.163.17a.778.778 0 0 1 .073.267h.415a1.037 1.037 0 0 0-.139-.435l.003.005a.771.771 0 0 0-.305-.292l-.004-.002a1.01 1.01 0 0 0-.457-.107h-.033.002c-.152 0-.289.027-.411.08s-.225.129-.311.232a1.011 1.011 0 0 0-.197.353l-.002.007c-.046.14-.068.298-.068.472v.202c0 .174.022.331.067.472s.111.261.196.361a.878.878 0 0 0 .307.229.99.99 0 0 0 .404.08c.195 0 .361-.035.497-.106s.242-.168.317-.291a.962.962 0 0 0 .133-.424zm2.308-.356v-.133c0-.182-.024-.347-.073-.49a1.051 1.051 0 0 0-.206-.373l.001.001a.88.88 0 0 0-.312-.232l-.006-.002a1.006 1.006 0 0 0-.409-.082.983.983 0 0 0-.407.082.88.88 0 0 0-.318.234 1.101 1.101 0 0 0-.206.371c-.047.14-.074.301-.074.468v.023-.001.133c0 .183.024.347.074.492.048.143.119.266.21.372l-.001-.001c.09.102.196.18.317.235.123.053.259.08.408.08s.286-.027.409-.08a.873.873 0 0 0 .316-.235c.088-.102.157-.225.204-.37s.072-.309.072-.492zm-.417-.136v.136c0 .136-.014.255-.04.36a.783.783 0 0 1-.115.267l.002-.003a.503.503 0 0 1-.18.16l-.003.001a.54.54 0 0 1-.237.053h-.012.001-.011a.545.545 0 0 1-.239-.055l.003.001a.541.541 0 0 1-.185-.16l-.001-.002a.789.789 0 0 1-.115-.259l-.001-.005a1.405 1.405 0 0 1-.04-.341v-.02.001-.136c0-.135.014-.254.04-.357s.065-.191.115-.261a.5.5 0 0 1 .181-.158l.003-.001a.527.527 0 0 1 .237-.055h.01c.092 0 .174.018.248.054s.134.088.184.16a.72.72 0 0 1 .115.261c.027.104.04.223.04.357z"/></symbol><symbol id="icon-astronaut" viewBox="0 0 32 32"><path fill="#4d5ae5" d="M31.974 4.524a.535.535 0 0 0-.427-.362h-.003l-1.911-.278-.855-1.731c-.179-.365-.776-.365-.956 0l-.855 1.731-1.91.278a.534.534 0 0 0-.296.909l1.383 1.348-.326 1.903a.533.533 0 0 0 .774.561l1.709-.899 1.709.899a.534.534 0 0 0 .773-.565v.003l-.326-1.903L31.84 5.07a.535.535 0 0 0 .134-.55l.001.004zm-2.463 1.327a.534.534 0 0 0-.153.472l.191 1.114-1-.526a.524.524 0 0 0-.499.001l.003-.001-1 .526.191-1.114a.53.53 0 0 0-.153-.472l-.81-.79 1.119-.162a.533.533 0 0 0 .401-.292l.5-1.013.501 1.013a.535.535 0 0 0 .402.292l1.119.162-.809.79zm-3.377 14.671h-1.067v1.067h1.067v-1.067zm0 2.133h-1.067v1.067h1.067v-1.067z" style="fill:var(--color3, #4d5ae5)"/><path fill="#4d5ae5" d="M27.2 21.589h-1.067v1.067H27.2v-1.067zm-2.133 0H24v1.067h1.067v-1.067zm-2.667 4.8h-1.067v1.067H22.4v-1.067zm0 2.134h-1.067v1.067H22.4v-1.067zm1.067-1.067H22.4v1.067h1.067v-1.067zM21.334 27.456h-1.067v1.067h1.067v-1.067zM16 24.256h-1.066v1.067H16v-1.067zm0 2.133h-1.066v1.067H16v-1.067zm1.067-1.066H16v1.067h1.067v-1.067zm-2.133 0h-1.067v1.067h1.067v-1.067zM5.867 6.122H4.801v1.066h1.066V6.122zm0 2.133H4.801v1.067h1.066V8.256zm1.066-1.066H5.867v1.067h1.066V7.189zm-2.133 0H3.733v1.067H4.8V7.189z" style="fill:var(--color3, #4d5ae5)"/><path fill="#2e2f42" d="M24.715 14.159a1.778 1.778 0 0 0-1.179-.704l-.009-.001a1.764 1.764 0 0 0-1.344.356l.004-.003-1.252.96-1.898 1.417-1.358-.541c2.421-1.086 4.114-3.508 4.114-6.32 0-3.823-3.122-6.933-6.961-6.933S7.87 5.5 7.87 9.323a6.86 6.86 0 0 0 1.12 3.758l-2.769-.024c-.008 0-.015.005-.024.005a.52.52 0 0 0-.155.03c-.013.005-.026.008-.038.014-.006.002-.013.003-.019.007L2.751 14.71l-1.893.911a.429.429 0 0 0-.064.036l.001-.001a1.78 1.78 0 0 0-.593 2.304l-.005-.01c.22.429.595.745 1.056.89a1.772 1.772 0 0 0 1.388-.133l-.009.005 1.388-.738 2.264-1.169 1.357-.008-5.442 5.415-.002.002-1.339 1.333c-.303.299-.49.714-.49 1.173v.005a1.668 1.668 0 0 0 1.669 1.663 1.67 1.67 0 0 0 1.18-.485l1.314-1.308 1.74-1.3.901.897L4.07 27.28c-.303.299-.49.714-.49 1.173v.005a1.669 1.669 0 0 0 1.67 1.664c.428 0 .855-.162 1.18-.485l3.482-3.466.001-.002 1.01-1-.004-.003c.007-.006.015-.009.022-.015l5.166-5.658 3.471.494a.522.522 0 0 0 .266-.035l-.003.001c.017-.006.033-.015.05-.023.019-.009.039-.015.057-.027l3.213-2.134c.012-.008.018-.02.029-.029.012-.01.029-.014.04-.025l1.272-1.192a1.777 1.777 0 0 0 .209-2.366l.003.005zM2.13 17.77a.714.714 0 0 1-.558.052.717.717 0 0 1-.215-1.258l.002-.001 1.314-.632.316.925.133.388-.993.527zm3.498-1.827-1.548.8-.255-.747-.183-.537 2.026-1-.04 1.483zm15.099-6.621a5.79 5.79 0 0 1-.599 2.559l-4.181-1.899a1.86 1.86 0 0 0-.782-1.384l-.006-.004 1.464-4.86c2.378.755 4.105 2.974 4.105 5.587zm-11.789 0c0-3.235 2.644-5.867 5.894-5.867.253 0 .5.022.745.053l-1.432 4.753c-.019 0-.037-.005-.057-.005h-.001a1.872 1.872 0 0 0-1.872 1.866 1.873 1.873 0 0 0 1.872 1.867h.001c.694 0 1.294-.383 1.618-.944l3.863 1.755a5.891 5.891 0 0 1-4.736 2.39c-3.25 0-5.895-2.633-5.895-5.867zm5.957.8c0 .441-.362.8-.806.8h-.002a.804.804 0 0 1-.804-.8c0-.441.361-.8.806-.8s.806.359.806.8zM2.465 25.146a.609.609 0 0 1-.855 0 .591.591 0 0 1 0-.844l.962-.959.851.848-.958.955zm3.213 3.734a.606.606 0 0 1-.855.001.591.591 0 0 1 0-.844l.963-.959.851.848-.96.955zm3.483-3.469-.002.001-1.765 1.76-.851-.848 1.763-1.756.002-.001c.04-.04.065-.088.09-.135.007-.014.02-.026.026-.04.017-.041.019-.085.025-.129.004-.024.014-.047.014-.073 0-.035-.012-.07-.02-.105-.007-.032-.007-.065-.018-.096a.511.511 0 0 0-.091-.137c-.01-.012-.014-.027-.025-.038h-.001l-.001-.002-1.607-1.6c-.017-.017-.039-.024-.058-.038a.491.491 0 0 0-.084-.056l-.003-.001a.477.477 0 0 0-.09-.032l-.003-.001a.502.502 0 0 0-.101-.02h-.022a.49.49 0 0 0-.077.006h.003a.59.59 0 0 0-.108.021l.004-.001a.502.502 0 0 0-.096.046l.002-.001c-.02.011-.043.015-.061.029l-1.774 1.324-.901-.897 2.399-2.386 4.36 4.289-.927.919zm6.818-7.017c-.015-.002-.03.004-.045.003l-.026-.001a.562.562 0 0 0-.092.008h.003a.5.5 0 0 0-.187.069l.002-.001a.554.554 0 0 0-.083.061c-.013.011-.028.017-.04.029l-4.698 5.146-4.328-4.257 2.833-2.818a.535.535 0 0 0-.378-.911h-.001l-2.219.013.027-1.607 3.104.027a6.928 6.928 0 0 0 4.978 2.101h.003c.438 0 .864-.045 1.279-.122.04.032.079.064.13.085l2.409.96.152.758.178.885-3.003-.427zm4.041.179-.314-1.558 1.447-1.08.947 1.257-2.08 1.381zm3.754-2.831-.838.785-.931-1.236.831-.637a.73.73 0 0 1 .543-.143.716.716 0 0 1 .395 1.231z" style="fill:var(--color4, #2e2f42)"/><path fill="#2e2f42" d="m13.602 18.544-2.143-2.134a.53.53 0 0 0-.752 0l-2.143 2.134a.533.533 0 0 0 0 .756l2.143 2.133a.53.53 0 0 0 .752 0l2.143-2.133a.532.532 0 0 0 0-.756zm-2.519 1.759-1.386-1.381 1.386-1.381 1.387 1.381-1.387 1.381zm6.081-15.232-.258 1.035c.071.018 1.738.452 1.738 2.149h1.067c0-2.017-1.666-2.966-2.546-3.185zm2.547 4.251h-1.067v1.067h1.067V9.322z" style="fill:var(--color4, #2e2f42)"/></symbol><symbol id="icon-diagram" viewBox="0 0 32 32"><path fill="#4d5ae5" d="M14.925 14.965h1.066v4.797h-1.066v-4.797zm4.265 2.132h1.066v2.665H19.19v-2.665zm-8.529 1.599h1.066v1.066h-1.066v-1.066zm-3.198-.533h1.066v1.599H7.463v-1.599z" style="fill:var(--color3, #4d5ae5)"/><path fill="#2e2f42" d="M1.599 28.291h25.587a1.6 1.6 0 0 0 1.599-1.599v-2.133a1.6 1.6 0 0 0-1.599-1.599h-.534V9.667l3.028-2.868a1.608 1.608 0 1 0-.742-.753l-.004-.01-2.282 2.163v-1.23a1.6 1.6 0 0 0-1.599-1.599H3.73a1.6 1.6 0 0 0-1.599 1.599V22.961h-.533A1.6 1.6 0 0 0-.001 24.56v2.134a1.6 1.6 0 0 0 1.599 1.599zM30.384 4.837a.533.533 0 0 1 0 1.066.533.533 0 0 1 0-1.066zM3.199 6.969c0-.295.239-.534.533-.534h21.322c.294 0 .533.239.533.534v2.238l-1.066 1.013V8.035a.532.532 0 0 0-.533-.533H4.798a.533.533 0 0 0-.533.533v13.326c0 .295.239.534.533.534h19.19a.534.534 0 0 0 .533-.534v-9.674l1.066-1.01V22.96H3.199V6.969zm4.797 6.93h-.005a1.6 1.6 0 1 0 1.112 2.748l1.853.93a.532.532 0 0 0 .636-.123l3.938-4.431 3.872 2.902a.532.532 0 0 0 .686-.04l3.365-3.188v8.131H5.33V8.568h18.124v2.66L19.682 14.8l-3.905-2.928a.531.531 0 0 0-.717.072v.001l-3.993 4.493-1.493-.746c.011-.064.018-.129.021-.194a1.6 1.6 0 0 0-1.599-1.599zm.533 1.599a.533.533 0 0 1-1.066 0 .533.533 0 0 1 1.066 0zm3.198 8.528h5.331v.533a.533.533 0 0 1-.533.533h-4.264a.533.533 0 0 1-.533-.533v-.533zm-10.661.534c0-.294.239-.533.533-.533h9.062v.533a1.6 1.6 0 0 0 1.599 1.599h4.265a1.6 1.6 0 0 0 1.599-1.599v-.534h9.061c.295 0 .534.238.534.533v2.133a.534.534 0 0 1-.534.533H1.599a.533.533 0 0 1-.533-.533v-2.133z" style="fill:var(--color4, #2e2f42)"/></symbol><symbol id="icon-clock" viewBox="0 0 32 32"><path fill="#2e2f42" d="M31.297 15.301C31.295 6.849 24.442-.002 15.989 0S.686 6.855.688 15.308C.69 22.096 5.11 27.851 11.229 29.853l.108.031a.67.67 0 0 0 .529-.064.642.642 0 0 0 .284-.357l3.865-12.25a1.913 1.913 0 1 0-.851-3.63l.011-.005-5.106-5.107a.637.637 0 1 0-.902.902l5.104 5.109a1.873 1.873 0 0 0 .532 2.306l.004.003-3.683 11.673C3.846 25.783.119 17.71 2.801 10.432 5.482 3.155 13.556-.573 20.833 2.109s11.004 10.755 8.323 18.032c-1.345 3.581-4.004 6.406-7.374 7.938l-.088.036-.398-1.875a.638.638 0 0 0-1.049-.343l.001-.001-3.837 3.425a.639.639 0 0 0 .227 1.084l.005.001 4.899 1.564a.637.637 0 0 0 .818-.743l.001.004-.391-1.839c5.528-2.374 9.329-7.772 9.329-14.057v-.034.002zm-15.305-.637a.638.638 0 0 1 0 1.276.638.638 0 0 1 0-1.276zm2.101 14.863 2.184-1.948.603 2.84-2.787-.892z" style="fill:var(--color4, #2e2f42)"/><path fill="#4d5ae5" d="M15.354 3.185V4.46a.638.638 0 1 0 1.275 0V3.185a.639.639 0 0 0-1.274-.002v.001zM3.876 14.664a.637.637 0 1 0 .001 1.274h1.275a.638.638 0 1 0 0-1.274H3.877zm24.232 1.275a.637.637 0 1 0 0-1.274h-1.275a.639.639 0 0 0-.002 1.274H28.107z" style="fill:var(--color3, #4d5ae5)"/></symbol><symbol id="icon-antenna" viewBox="0 0 32 32"><path fill="#2e2f42" d="m30.773 22.098-8.443-8.505.937-4.615c.242.094.499.143.759.145h.032a2.16 2.16 0 1 0-2.029-1.42l-.005-.015-4.96.605L8.973.16A.53.53 0 0 0 8.597 0a.536.536 0 0 0-.373.155L6.711 1.659a.53.53 0 0 0 0 .754l.814.825C6.382 5.3 5.709 7.76 5.709 10.377c0 4.106 1.656 7.825 4.336 10.526l-.001-.001a.506.506 0 0 0 .146.098 2.986 2.986 0 0 0-.052.546v6.188h-6.4A2.669 2.669 0 0 0 1.071 30.4v1.067c0 .295.239.533.534.533h24.534a.535.535 0 0 0 .534-.534v-1.067a2.67 2.67 0 0 0-2.667-2.666h-6.4v-2.742a14.784 14.784 0 0 0 10.166-1.502l-.077.039.819.823a.534.534 0 0 0 .377.16.532.532 0 0 0 .373-.155l1.512-1.505a.535.535 0 0 0 0-.754zM23.28 6.233a1.067 1.067 0 1 1 .752 1.822h-.003a1.066 1.066 0 0 1-.746-1.822h-.002zm-1.256 3.505-.599 2.945-1.175-1.182 1.774-1.764zm-.605-.902-1.92 1.909-1.485-1.493 3.405-.415zM24.004 28.8a1.6 1.6 0 0 1 1.6 1.6v.534H2.138V30.4a1.6 1.6 0 0 1 1.6-1.6h20.267zm-7.466-2.134v1.067h-5.334v-1.067h5.334zM11.204 25.6v-4.053c0-1.294 1.197-2.346 2.666-2.346s2.667 1.053 2.667 2.346V25.6h-5.334zm6.4-1.696v-2.357c0-1.882-1.675-3.413-3.733-3.413h-.059c-1.353 0-2.54.707-3.213 1.771l-.009.016a13.816 13.816 0 0 1-3.811-9.549c0-2.314.567-4.496 1.569-6.414l-.036.077 18.602 18.709c-1.823.947-3.98 1.502-6.266 1.502-1.079 0-2.128-.124-3.136-.357l.093.018zm11.289-.683L7.836 2.041l.755-.752 7.935 7.98c.003 0 .006.007.009.009l13.114 13.191-.757.752z" style="fill:var(--color4, #2e2f42)"/><path fill="#4d5ae5" d="M13.876 20.267h-.007a1.6 1.6 0 0 0-.003 3.2h.007a1.6 1.6 0 0 0 .003-3.2zm.373 1.978a.534.534 0 0 1-.91-.379v-.002a.533.533 0 0 1 .53-.53.535.535 0 0 1 .374.912h.005z" style="fill:var(--color3, #4d5ae5)"/></symbol><symbol id="icon-group6" viewBox="0 0 32 32"><path d="M16.18 15.64a1 1 0 0 1-.209-.613l.002-.068v.003-.983c0-.301.068-.53.205-.687s.372-.235.705-.234c.313 0 .535.067.667.2.143.17.213.378.197.588v.232h-.56v-.234a1.171 1.171 0 0 0-.016-.229.22.22 0 0 0-.079-.136.318.318 0 0 0-.179-.054l-.025.001h.001l-.025-.001a.343.343 0 0 0-.19.057l.001-.001a.263.263 0 0 0-.092.148v.002a1.12 1.12 0 0 0-.022.224v.02-.001 1.193a.596.596 0 0 0 .073.338l-.002-.003a.268.268 0 0 0 .11.081l.002.001a.322.322 0 0 0 .145.019.302.302 0 0 0 .198-.054.24.24 0 0 0 .083-.144v-.001c.013-.079.019-.159.017-.239v-.242h.56v.221a.897.897 0 0 1-.195.619l.001-.002c-.128.146-.347.219-.67.219s-.565-.078-.704-.24zm2.331.01c-.141-.153-.212-.376-.212-.671v-1.034c0-.292.071-.513.212-.663s.378-.225.709-.224c.329 0 .564.075.706.224.142.15.213.371.213.663v1.034c0 .292-.072.516-.215.67s-.378.231-.704.231-.567-.078-.709-.23zm.97-.248a.57.57 0 0 0 .067-.306V13.83l.001-.033a.557.557 0 0 0-.069-.269l.001.003a.268.268 0 0 0-.112-.082l-.002-.001a.295.295 0 0 0-.15-.017h.002a.303.303 0 0 0-.15.019l.002-.001a.273.273 0 0 0-.115.082.549.549 0 0 0-.067.3v1.272a.57.57 0 0 0 .067.306.363.363 0 0 0 .262.103c.052 0 .101-.01.146-.028l-.003.001a.363.363 0 0 0 .118-.076v-.006zm1.332-2.314h.603l.453 1.908.463-1.908h.587l.059 2.754h-.434l-.046-1.914-.447 1.914h-.348l-.464-1.921-.043 1.921h-.438l.054-2.754zm2.841 0h.939c.541 0 .811.261.811.782 0 .499-.285.749-.854.748h-.32v1.224h-.579l.003-2.754zm.802 1.177a.443.443 0 0 0 .318-.088.44.44 0 0 0 .083-.313v.002l.001-.032a.824.824 0 0 0-.03-.224l.001.006a.203.203 0 0 0-.043-.076.242.242 0 0 0-.072-.055l-.001-.001a.593.593 0 0 0-.227-.045l-.033.001h.002-.225v.823h.225zm1.784-1.177h.622l.639 2.754h-.54l-.126-.635h-.555l-.13.635h-.548l.639-2.754zm.532 1.8-.217-1.156-.217 1.156h.433zm1.244-1.8h.406l.776 1.571v-1.571h.481v2.754h-.386l-.781-1.64v1.64h-.497l.001-2.754zm2.79 1.704-.645-1.7h.544l.394 1.092.37-1.092h.532l-.638 1.7v1.05h-.556v-1.05zm-13.731 2.254v.144h-.473v1.119h-.198V17.19h-.476v-.144h1.146zm1.482 1.263H18.4a.075.075 0 0 1-.039-.012.064.064 0 0 1-.025-.029l-.137-.3h-.656l-.137.3a.083.083 0 0 1-.02.034.067.067 0 0 1-.039.012h-.157l.58-1.263h.202l.587 1.258zm-.959-.468h.547l-.232-.514a.814.814 0 0 1-.042-.113l-.002-.006-.022.067-.021.053-.229.513zm1.958.345a.99.99 0 0 0 .109 0 .75.75 0 0 0 .181-.04l-.005.002c.026-.009.051-.02.078-.031v-.284H19.684a.077.077 0 0 1-.015-.002.032.032 0 0 1-.014-.008.028.028 0 0 1-.009-.01.021.021 0 0 1-.003-.012v-.098h.45v.484a.877.877 0 0 1-.238.102l-.006.001a1.19 1.19 0 0 1-.314.034h-.007a.886.886 0 0 1-.292-.049l.006.002a.723.723 0 0 1-.233-.133l.001.001a.616.616 0 0 1-.148-.196l-.002-.004a.617.617 0 0 1-.053-.254v-.017c0-.092.019-.18.054-.26l-.002.004c.033-.075.084-.143.15-.2s.145-.101.232-.131a1.08 1.08 0 0 1 .472-.036.813.813 0 0 1 .254.082c.036.02.069.042.101.066l-.055.078a.052.052 0 0 1-.019.017.06.06 0 0 1-.026.007.072.072 0 0 1-.036-.01.654.654 0 0 1-.06-.032l.003.002a.501.501 0 0 0-.074-.033l-.004-.001a.627.627 0 0 0-.102-.027l-.005-.001a.861.861 0 0 0-.139-.011h-.015a.68.68 0 0 0-.222.037l.005-.001a.447.447 0 0 0-.279.257.59.59 0 0 0 .001.426l-.001-.004a.469.469 0 0 0 .116.159.522.522 0 0 0 .169.1c.074.022.152.03.229.025zm1.848-.021h.633v.144h-.827v-1.263h.198l-.005 1.119zm1.291.144h-.198v-1.263h.198v1.263zm.737-1.257a.12.12 0 0 1 .031.023l.847.952-.001-.022.001-.023v.001-.941h.173v1.268H24.377a.09.09 0 0 1-.037-.008h.001a.092.092 0 0 1-.031-.024l-.846-.951v.982h-.166v-1.263h.103c.011 0 .022.002.033.006zm2.51-.006v.139h-.703v.417h.569v.134h-.569v.431h.702v.139h-.907v-1.26h.907zm-20.769-7.8 8.801 2.156v7.556l-8.801-2.155V9.246zm-.565-.644v8.568l9.928 2.433v-8.567L4.608 8.602z" /><path  d="M9.93 23.58 0 21.145v-8.567l9.93 2.434v8.569z"/><path  d="m4.773 9.149 8.686 2.129-3.694 3.188-8.687-2.13 3.695-3.187zm-.165-.547L0 12.578l9.93 2.434 4.607-3.976-9.928-2.435zm5.881 14.496 4.048-3.494-4.049-.993v4.488z" /></symbol><symbol id="icon-group4" viewBox="0 0 32 32"><path d="M4.982 12.959h-.001c-.909 0-1.646.664-1.646 1.483v.001c0 .819.737 1.483 1.646 1.483h.001c.909 0 1.646-.664 1.646-1.483v-.001c0-.819-.737-1.483-1.646-1.483zm12.146-.474c-.002-1.138-.505-2.229-1.397-3.034s-2.102-1.258-3.365-1.261c-1.262.002-2.473.455-3.366 1.26s-1.396 1.896-1.398 3.034v6.276s9.525-.956 9.526-6.275v-.001zM0 20.821c.002.792.352 1.551.973 2.111s1.463.876 2.341.878c.878-.002 1.72-.318 2.341-.878s.971-1.318.973-2.11v-4.366S0 17.122 0 20.821zm3.314.782a.938.938 0 0 1-.482-.132.816.816 0 0 1-.318-.346l-.002-.005a.698.698 0 0 1-.049-.456l-.001.005a.766.766 0 0 1 .237-.4l.001-.001a.896.896 0 0 1 .439-.213l.005-.001c.168-.03.343-.015.501.045s.294.159.389.288a.732.732 0 0 1-.107.991.863.863 0 0 1-.276.168l-.006.002a.933.933 0 0 1-.332.06h-.001v-.003zm6.061-1.407v1.625H9.04v-1.625h.335zm.647.694v.261h-.739v-.261h.739zm.078-.694v.262h-.816v-.262h.817zm1.529.775v.077c0 .124-.017.235-.05.333a.71.71 0 0 1-.143.252l.001-.001a.6.6 0 0 1-.219.157.678.678 0 0 1-.27.055h-.011.001a.632.632 0 0 1-.498-.211l-.001-.001a.727.727 0 0 1-.142-.246l-.002-.005a1.005 1.005 0 0 1-.05-.318v-.016.001-.077c0-.124.017-.235.05-.333a.735.735 0 0 1 .143-.252l-.001.001a.62.62 0 0 1 .219-.158.693.693 0 0 1 .28-.055c.103 0 .196.018.28.055s.158.089.219.158a.726.726 0 0 1 .143.251c.034.097.051.208.051.332zm-.338.077v-.079c0-.086-.008-.162-.023-.227a.5.5 0 0 0-.07-.167l.001.002a.31.31 0 0 0-.11-.1l-.002-.001a.312.312 0 0 0-.144-.034h-.007a.316.316 0 0 0-.15.034.309.309 0 0 0-.11.099l-.001.001a.51.51 0 0 0-.068.162l-.001.003a.953.953 0 0 0-.023.213v.015-.001.079c0 .086.008.162.023.228s.039.121.069.166a.3.3 0 0 0 .262.136.32.32 0 0 0 .151-.034.306.306 0 0 0 .11-.101l.001-.001a.512.512 0 0 0 .068-.166.955.955 0 0 0 .023-.214v-.014.001zm1.425.348v-.004a.214.214 0 0 0-.014-.076l.001.001a.154.154 0 0 0-.047-.065.396.396 0 0 0-.095-.058l-.003-.001a1.245 1.245 0 0 0-.152-.058l-.01-.003a1.952 1.952 0 0 1-.222-.086l.013.005a.89.89 0 0 1-.176-.105l.002.001a.48.48 0 0 1-.117-.137l-.001-.002a.379.379 0 0 1-.043-.176V20.619c0-.065.017-.127.046-.181l-.001.002a.427.427 0 0 1 .125-.143.602.602 0 0 1 .19-.093.88.88 0 0 1 .242-.032c.12 0 .224.022.314.065s.158.102.208.178c.05.075.075.161.075.258h-.333v-.006a.24.24 0 0 0-.031-.12l.001.001a.209.209 0 0 0-.088-.086l-.001-.001a.311.311 0 0 0-.138-.031h-.012.001-.011a.345.345 0 0 0-.136.028l.002-.001a.194.194 0 0 0-.087.07v.001a.172.172 0 0 0-.029.095v.003c0 .027.006.053.02.075a.229.229 0 0 0 .062.062h.001c.027.019.061.038.101.055s.087.034.139.05c.089.027.166.057.234.09s.124.071.17.113a.414.414 0 0 1 .137.322v.016a.39.39 0 0 1-.16.315l-.001.001c-.052.038-.114.068-.186.088s-.153.03-.242.03a.916.916 0 0 1-.238-.032.724.724 0 0 1-.216-.099l.003.002a.477.477 0 0 1-.15-.163l-.001-.002a.474.474 0 0 1-.057-.238h.336c0 .051.008.093.023.128s.037.063.065.084h.001a.274.274 0 0 0 .101.046h.002c.04.01.084.014.131.014h.012a.366.366 0 0 0 .133-.025l-.002.001a.177.177 0 0 0 .112-.164v-.003zm1.289-1.2v1.625h-.334v-1.625h.334zm.501 0v.262H13.18v-.262h1.326zm1.281 1.364v.261h-.865v-.261h.865zm-.756-1.364v1.625h-.335v-1.625h.335zm.643.662v.254h-.752v-.254h.752zm.112-.662v.262h-.864v-.262h.864zm.196 0h.606a.83.83 0 0 1 .32.056c.09.037.159.093.208.165s.072.163.072.269c0 .087-.014.162-.045.224s-.071.114-.123.154l-.001.001a.635.635 0 0 1-.182.097l-.005.001-.106.056h-.527l-.002-.261h.403a.314.314 0 0 0 .137-.032l-.002.001a.212.212 0 0 0 .087-.086l.001-.001a.263.263 0 0 0 .03-.123V20.704a.295.295 0 0 0-.03-.129l.001.002a.195.195 0 0 0-.087-.086h-.001a.325.325 0 0 0-.138-.031H16.316v1.363h-.334v-1.625zm.908 1.625-.37-.725.354-.002.375.711v.015h-.358zm1.758-.579h-.414v-.261h.427a.35.35 0 0 0 .145-.032l-.002.001a.2.2 0 0 0 .087-.088l.001-.001a.331.331 0 0 0 0-.266l.001.002a.223.223 0 0 0-.087-.1l-.001-.001a.286.286 0 0 0-.144-.038h-.013.001-.298v1.363h-.334v-1.625h.632c.128 0 .236.023.328.069a.495.495 0 0 1 .282.464c0 .105-.024.196-.072.272s-.118.136-.21.178a.777.777 0 0 1-.328.062zm1.931.318v.261h-.865v-.261h.865zm-.755-1.364v1.625h-.335v-1.625h.335zm.642.662v.254h-.752v-.254h.752zm.112-.662v.262h-.864v-.262h.864zm.945 0v1.625h-.333v-1.625h.334zm.5 0v.262h-1.326v-.262h1.326zm1.281 1.364v.261h-.865v-.261h.865zm-.755-1.364v1.625h-.335v-1.625h.335zm.643.662v.254h-.752v-.254h.752zm.111-.662v.262h-.864v-.262h.864zm.197 0h.606c.125 0 .231.019.321.056s.159.093.208.165a.48.48 0 0 1 .072.269c0 .087-.015.162-.045.224s-.071.114-.123.154l-.001.001a.635.635 0 0 1-.182.097l-.005.001-.106.056h-.527l-.002-.261h.403a.314.314 0 0 0 .137-.032l-.002.001a.212.212 0 0 0 .087-.086l.001-.001a.268.268 0 0 0 .031-.124V20.703a.296.296 0 0 0-.03-.13l.001.002a.195.195 0 0 0-.087-.086h-.001a.325.325 0 0 0-.138-.031h-.281v1.363h-.335v-1.625zm.908 1.625-.371-.725.354-.002.375.711v.015h-.358zm1.402-.425v-.002a.22.22 0 0 0-.014-.077v.001a.154.154 0 0 0-.047-.065.396.396 0 0 0-.095-.058l-.003-.001a1.245 1.245 0 0 0-.152-.058l-.01-.003a2.05 2.05 0 0 1-.223-.086l.013.005a.89.89 0 0 1-.176-.105l.002.001a.48.48 0 0 1-.117-.137l-.001-.002a.379.379 0 0 1-.043-.176V20.62c0-.065.017-.127.046-.181l-.001.002a.427.427 0 0 1 .125-.143.602.602 0 0 1 .19-.093.88.88 0 0 1 .242-.032c.12 0 .224.022.314.065s.158.102.208.178c.05.075.075.161.075.258h-.333v-.006a.24.24 0 0 0-.031-.12l.001.001a.209.209 0 0 0-.088-.086l-.001-.001a.311.311 0 0 0-.138-.031h-.012.001-.011a.345.345 0 0 0-.136.028l.002-.001a.194.194 0 0 0-.087.07v.001a.173.173 0 0 0-.029.096v.003c0 .027.006.053.02.075a.229.229 0 0 0 .062.062h.001c.027.019.061.038.101.055s.087.034.139.05c.089.027.166.057.234.09s.124.071.17.113a.414.414 0 0 1 .137.322v.016a.39.39 0 0 1-.16.315l-.001.001c-.052.038-.114.068-.186.088s-.153.03-.242.03a.916.916 0 0 1-.238-.032.724.724 0 0 1-.216-.099l.003.002a.49.49 0 0 1-.151-.163l-.001-.002a.474.474 0 0 1-.057-.238h.336c0 .051.008.093.023.128s.037.063.065.084a.274.274 0 0 0 .101.046h.002c.04.01.084.014.132.014h.012a.366.366 0 0 0 .133-.025l-.002.001a.177.177 0 0 0 .112-.164v-.003z" /></symbol> <symbol id="icon-close-black-18dp-2-1-1" viewBox="0 0 32 32">
      <path d="M32 3.224 28.776 0 16 12.776 3.224 0 0 3.224 12.776 16 0 28.776 3.224 32 16 19.224 28.776 32 32 28.776 19.224 16 32 3.224z"/>
    </symbol><symbol id="icon-Frame-3" viewBox="0 0 32 32">
      <path fill="#fff" d="m32 2.667-32 15 10.227 3.156L26 8.5 14.003 21.988l.009.004-.012-.004v7.345l5.735-5.576L27.002 26l4.999-23.333z" style="fill:var(--color1, #fff)"/>
    </symbol><symbol id="icon-mail" viewBox="0 0 43 32">
      <path d="M37.333 0h-32c-2.2 0-3.981 1.8-3.981 4l-.019 24c0 2.2 1.8 4 4 4h32c2.2 0 4-1.8 4-4V4c0-2.2-1.8-4-4-4zm-.8 8.501-14.139 8.837a2.02 2.02 0 0 1-2.129-.005l.009.005-14.141-8.84A1.7 1.7 0 1 1 7.94 5.621l-.006-.004 13.4 8.381 13.4-8.381a1.7 1.7 0 1 1 1.808 2.876l-.008.004z"/>
    </symbol>
    <symbol id="icon-person" viewBox="0 0 32 32">
      <path  d="M16 16a5.333 5.333 0 1 0 0-10.666A5.333 5.333 0 1 0 16 16zm0 2.667c-3.561 0-10.667 1.787-10.667 5.333v1.333c0 .732.599 1.333 1.333 1.333h18.667c.732 0 1.333-.601 1.333-1.333V24c0-3.547-7.108-5.333-10.667-5.333z" />
    </symbol>
    <symbol id="icon-email" viewBox="0 0 24 32">
      <path fill="#fff" d="M0 0h24v32H0z" style="fill:var(--color2, #fff)"/>
      <path fill="#2e2f42" d="M20 8H4c-1.1 0-1.989.9-1.989 2L2 22c0 1.1.9 2 2 2h16c1.1 0 2-.9 2-2V10c0-1.1-.9-2-2-2zm-.4 4.251-7.069 4.419c-.151.094-.334.15-.531.15s-.38-.056-.535-.153l.004.002L4.4 12.25a.85.85 0 1 1 .902-1.437L11.999 15l6.7-4.191a.849.849 0 1 1 .903 1.437l-.004.002z" style="fill:var(--color3, #2e2f42)"/>
    </symbol>
    <symbol id="icon-phone" viewBox="0 0 24 32">
      <path d="m19.635 18.487-2.451-.28a1.927 1.927 0 0 0-1.583.551l-1.775 1.775c-2.752-1.42-4.94-3.607-6.322-6.278l-.038-.081 1.787-1.785a1.914 1.914 0 0 0 .548-1.591l.001.009-.28-2.432a1.933 1.933 0 0 0-1.918-1.708H5.933c-1.091 0-1.997.907-1.929 1.997.511 8.24 7.101 14.821 15.332 15.333 1.091.067 1.997-.84 1.997-1.931v-1.68c0-.981-.739-1.789-1.69-1.899l-.009-.001z"/>
    </symbol>
    <symbol id="icon-checkmark" viewBox="0 0 32 32">
      <path d="M27 4 12 19l-7-7-5 5 12 12L32 9z"/>
    </symbol>
    </defs></svg>